<svg width="17" height="17" viewBox="0 0 17 17" fill="none" xmlns="http://www.w3.org/2000/svg">
<path fill-rule="evenodd" clip-rule="evenodd" d="M5.2067 15.785C4.76121 15.269 4.31536 14.7533 3.86894 14.2381C3.36615 13.6579 2.86208 13.0787 2.35974 12.4981C1.70121 11.7369 1.04373 10.9748 0.385887 10.2131C0.280815 10.0914 0.28093 10.0913 0.382052 9.96679C0.500134 9.82174 0.499905 9.82222 0.66192 9.91332C1.60764 10.4454 2.55373 10.9766 3.49899 11.5092C3.90137 11.736 4.30246 11.9653 4.70333 12.1946C5.00912 11.779 5.4015 11.348 5.70869 10.9333C6.37594 10.0325 7.09072 9.16994 7.82411 8.32266C8.73404 7.2714 9.68988 6.26301 10.6956 5.3031C11.2912 4.73441 11.8939 4.17212 12.5347 3.65341C12.9659 3.30437 13.3962 2.95384 13.8386 2.61933C14.2397 2.3161 14.6487 2.02158 15.0685 1.74509C15.5186 1.44859 15.9858 1.17791 16.4448 0.894665C16.4979 0.972531 16.6336 1.06388 16.6933 1.14513C16.6547 1.1814 16.6179 1.21672 16.5802 1.25112C15.6846 2.07018 14.8131 2.9142 13.9844 3.801C13.5558 4.25963 13.1437 4.73395 12.728 5.20467C12.1087 5.90643 11.5221 6.63529 10.9584 7.38216C10.4041 8.1166 9.8719 8.86695 9.36073 9.63241C8.87839 10.3548 8.41873 11.091 7.98137 11.8409C7.61455 12.4698 7.25949 13.1057 6.90454 13.7414C6.74019 14.0356 6.58619 14.3358 6.43114 14.6352C6.17544 15.129 5.92278 15.6243 5.66882 16.119H5.48809C5.39441 16.0076 5.30189 15.8951 5.2067 15.785V15.785Z" fill="#2A2A2A"/>
</svg>
